<svg width="169" height="169" viewBox="0 0 169 169" fill="none" xmlns="http://www.w3.org/2000/svg">
<path d="M84.5 168.5C130.892 168.5 168.5 130.892 168.5 84.5C168.5 38.1081 130.892 0.5 84.5 0.5C38.1081 0.5 0.5 38.1081 0.5 84.5C0.5 130.892 38.1081 168.5 84.5 168.5Z" fill="#F5F5F5" stroke="#CCCCCC"/>
<g clip-path="url(#clip0)">
<path d="M57.4473 83.2892C57.187 87.757 60.6681 91.5819 65.1902 91.839C65.3529 91.839 65.5156 91.839 65.6782 91.839C70.233 91.839 73.9092 88.207 73.8766 83.7071C73.8766 79.2072 70.2004 75.5752 65.6457 75.6073C61.2862 75.6073 57.675 78.9822 57.4473 83.2892Z" fill="#0033AD"/>
<path d="M26.8006 81.2C25.3366 81.1036 24.0678 82.2286 24.0027 83.675C23.9377 85.1214 25.0438 86.3749 26.5078 86.4392C27.9718 86.5356 29.2081 85.4107 29.3057 83.9642C29.4033 82.5179 28.2646 81.2965 26.8006 81.2Z" fill="#0033AD"/>
<path d="M56.9257 36.1688C58.227 35.526 58.7475 33.9188 58.0968 32.6332C57.4462 31.3475 55.8195 30.8332 54.5182 31.476C53.2169 32.1189 52.6963 33.6938 53.347 34.9795C53.9977 36.2974 55.5918 36.8438 56.9257 36.1688C56.9257 36.1688 56.8931 36.1688 56.9257 36.1688Z" fill="#0033AD"/>
<path d="M65.2562 50.5364C67.2733 49.54 68.0866 47.0972 67.0781 45.1044C66.0696 43.1116 63.597 42.308 61.5799 43.3044C59.5629 44.3008 58.7495 46.7436 59.7581 48.7364C60.7666 50.7292 63.2391 51.5328 65.2562 50.5364Z" fill="#0033AD"/>
<path d="M37.2126 60.4041C38.7742 61.4006 40.8563 60.9827 41.8974 59.4399C42.9059 57.897 42.483 55.8399 40.9214 54.8114C39.3598 53.815 37.2777 54.2328 36.2366 55.7757C35.1955 57.3185 35.651 59.4077 37.2126 60.4041Z" fill="#0033AD"/>
<path d="M42.1879 79.7537C39.9105 79.6252 37.9911 81.3287 37.8609 83.5787C37.7308 85.8286 39.4551 87.7251 41.7324 87.8536C44.0097 87.9822 45.9292 86.2786 46.0593 84.0287C46.1895 81.8108 44.4652 79.8823 42.1879 79.7537Z" fill="#0033AD"/>
<path d="M37.6663 106.978C36.0071 107.814 35.3239 109.807 36.1698 111.478C37.0156 113.118 39.0327 113.793 40.7244 112.956C42.3836 112.121 43.0668 110.128 42.221 108.457C41.3751 106.817 39.3255 106.142 37.6663 106.978Z" fill="#0033AD"/>
<path d="M53.609 71.3647C55.8538 72.8111 58.8469 72.2004 60.2784 69.9826C61.7424 67.7647 61.1242 64.8077 58.8794 63.3934C56.6346 61.947 53.6416 62.5578 52.21 64.7755C50.746 66.9612 51.3642 69.9183 53.609 71.3647Z" fill="#0033AD"/>
<path d="M104.196 50.2151C106.083 51.4365 108.653 50.9222 109.89 49.058C111.126 47.1937 110.605 44.6544 108.719 43.4331C106.831 42.2116 104.261 42.7259 103.025 44.5902C101.756 46.4866 102.276 48.9936 104.196 50.2151Z" fill="#0033AD"/>
<path d="M112.592 35.9116C113.828 36.7152 115.455 36.3617 116.268 35.1403C117.082 33.9189 116.723 32.3117 115.487 31.5082C114.251 30.7046 112.625 31.0582 111.811 32.2475C111.03 33.4689 111.388 35.1081 112.592 35.9116Z" fill="#0033AD"/>
<path d="M104.815 75.5431C100.293 75.286 96.3889 78.7252 96.1612 83.193C95.9008 87.6608 99.382 91.5179 103.904 91.7429C104.067 91.7429 104.23 91.7429 104.359 91.7429C108.882 91.7429 112.558 88.1108 112.558 83.6108C112.591 79.3359 109.175 75.7681 104.815 75.5431Z" fill="#0033AD"/>
<path d="M67.9552 70.7861C69.3541 73.5182 72.1845 75.2539 75.3077 75.2539C79.8299 75.2539 83.5061 71.6218 83.5061 67.1219C83.5061 65.8684 83.2133 64.6148 82.6277 63.4577C80.5781 59.4399 75.6331 57.8329 71.5989 59.8578C67.5323 61.9149 65.9056 66.8005 67.9552 70.7861Z" fill="#0033AD"/>
<path d="M132.34 60.404C133.998 59.5683 134.649 57.5434 133.803 55.9041C132.957 54.2649 130.908 53.622 129.248 54.4577C127.589 55.2934 126.939 57.2862 127.752 58.9255C128.631 60.5647 130.648 61.2397 132.34 60.404Z" fill="#0033AD"/>
<path d="M111.518 62.9754C109.143 64.1647 108.167 67.0253 109.371 69.3717C110.575 71.7181 113.47 72.6823 115.845 71.4931C118.219 70.3038 119.195 67.4432 117.992 65.0968C116.788 62.7505 113.893 61.8183 111.518 62.9754Z" fill="#0033AD"/>
<path d="M84.6784 34.6903C86.5328 34.7868 88.1269 33.3725 88.257 31.5404C88.3872 29.7083 86.9232 28.1333 85.0688 28.0048C83.2144 27.9083 81.6202 29.2904 81.4901 31.1226C81.3925 32.9868 82.824 34.5618 84.6784 34.6903Z" fill="#0033AD"/>
<path d="M84.646 55.6792C87.3138 55.8398 89.5911 53.8149 89.7212 51.1792C89.8839 48.5436 87.8343 46.2936 85.1666 46.165C82.4988 46.0043 80.2216 48.0293 80.0914 50.665C79.9613 53.3007 81.9784 55.5506 84.646 55.6792Z" fill="#0033AD"/>
<path d="M58.4894 104.407C60.8644 103.218 61.8404 100.357 60.6366 98.0105C59.433 95.6641 56.5375 94.6999 54.1626 95.8892C51.7876 97.0784 50.8117 99.9391 52.0154 102.285C53.2191 104.632 56.1146 105.596 58.4894 104.407Z" fill="#0033AD"/>
<path d="M87.7692 62.6541C85.2967 66.4147 86.3378 71.4288 90.1442 73.8716C93.9505 76.3144 99.0257 75.2859 101.499 71.5252C103.971 67.7646 102.93 62.7505 99.1233 60.3077C97.7895 59.4399 96.2279 58.9899 94.6337 58.9899C91.8684 58.9899 89.2983 60.372 87.7692 62.6541Z" fill="#0033AD"/>
<path d="M102.051 96.5963C100.002 92.5786 95.0565 90.9714 91.0223 92.9964C86.9556 95.0213 85.329 99.907 87.3786 103.892C89.4282 107.911 94.3733 109.518 98.4074 107.493C102.442 105.5 104.101 100.678 102.084 96.6607C102.084 96.6285 102.084 96.6285 102.051 96.5963Z" fill="#0033AD"/>
<path d="M116.399 96.0177C114.154 94.5713 111.161 95.182 109.729 97.3999C108.265 99.6177 108.883 102.575 111.128 103.989C113.373 105.435 116.366 104.825 117.797 102.607C119.261 100.421 118.643 97.4641 116.399 96.0177Z" fill="#0033AD"/>
<path d="M132.145 83.8357C132.275 81.5857 130.551 79.6894 128.273 79.5608C125.996 79.4323 124.076 81.1358 123.947 83.3857C123.816 85.6357 125.54 87.5321 127.818 87.6606C130.063 87.7892 132.015 86.0535 132.145 83.8357Z" fill="#0033AD"/>
<path d="M143.499 80.943C142.035 80.8466 140.766 81.9715 140.701 83.418C140.636 84.8644 141.742 86.118 143.206 86.1822C144.67 86.2787 145.907 85.1537 146.004 83.7073C146.069 82.2609 144.963 81.0394 143.499 80.943Z" fill="#0033AD"/>
<path d="M132.794 106.978C131.233 105.981 129.15 106.399 128.11 107.942C127.101 109.485 127.524 111.542 129.086 112.571C130.647 113.567 132.73 113.149 133.77 111.606C134.812 110.064 134.356 107.975 132.794 106.978Z" fill="#0033AD"/>
<path d="M57.3822 131.47C56.1459 130.667 54.5192 131.021 53.7059 132.21C52.8926 133.431 53.2504 135.038 54.4542 135.842C55.6904 136.646 57.3171 136.292 58.1304 135.103C58.9763 133.913 58.6184 132.274 57.3822 131.47Z" fill="#0033AD"/>
<path d="M113.079 131.213C111.778 131.856 111.258 133.464 111.908 134.749C112.558 136.035 114.186 136.549 115.486 135.906C116.788 135.263 117.308 133.688 116.658 132.403C116.007 131.085 114.413 130.538 113.079 131.213C113.079 131.213 113.112 131.213 113.079 131.213Z" fill="#0033AD"/>
<path d="M82.237 104.728C84.7096 100.968 83.6686 95.9534 79.8622 93.4784C76.0558 91.0356 70.9806 92.0642 68.4754 95.8248C65.9704 99.5855 67.044 104.6 70.8504 107.074C72.1842 107.942 73.7458 108.393 75.34 108.393C78.1378 108.424 80.708 107.043 82.237 104.728Z" fill="#0033AD"/>
<path d="M65.8083 117.168C63.9213 115.946 61.3512 116.46 60.1149 118.325C58.8786 120.188 59.3992 122.728 61.2861 123.949C63.1731 125.171 65.7432 124.656 66.9795 122.792C68.2483 120.928 67.7277 118.389 65.8083 117.168Z" fill="#0033AD"/>
<path d="M84.9715 132.692C83.1171 132.596 81.523 134.01 81.3928 135.842C81.2627 137.674 82.7267 139.248 84.5811 139.377C86.4355 139.474 88.0297 138.091 88.1598 136.259C88.2574 134.396 86.8259 132.82 84.9715 132.692Z" fill="#0033AD"/>
<path d="M85.0023 111.703C82.3345 111.542 80.0572 113.567 79.927 116.203C79.7644 118.838 81.814 121.089 84.4817 121.217C87.1495 121.345 89.4268 119.353 89.557 116.717C89.7196 114.113 87.6701 111.832 85.0023 111.703Z" fill="#0033AD"/>
<path d="M104.75 116.846C102.733 117.874 101.919 120.317 102.96 122.31C104.002 124.303 106.474 125.106 108.491 124.078C110.508 123.081 111.322 120.639 110.313 118.646C109.272 116.653 106.799 115.818 104.75 116.846Z" fill="#0033AD"/>
</g>
<defs>
<clipPath id="clip0">
<rect width="122" height="113" fill="white" transform="translate(24 28)"/>
</clipPath>
</defs>
</svg>
