<svg width="169" height="169" viewBox="0 0 169 169" fill="none" xmlns="http://www.w3.org/2000/svg">
<circle cx="84.5" cy="84.5" r="84" fill="#F5F5F5" stroke="#CCCCCC"/>
<path d="M34.8676 135.5L49.2361 110.706L49.2364 110.705L63.9494 85.2507L63.9497 85.2502L78.7529 59.7058L78.753 59.7057L93.1874 34.8043L93.391 34.5H108.175L108.798 36.8277L108.798 36.8279L114.395 57.6957L114.395 57.6957L114.397 57.7039L114.939 59.5928L115.043 59.955H115.419H130.619L120.042 78.1829L119.937 78.3643L119.992 78.5664L121.797 85.1301L121.798 85.1326L128.657 110.585L128.657 110.585L135.348 135.5H120.497L113.736 110.325L113.735 110.323L110.125 97.1011L109.81 95.948L109.21 96.9819L101.537 110.204L101.537 110.204L86.8782 135.5H70.3393L84.6198 110.706L84.6209 110.705L99.4234 85.2514L99.4238 85.2507L104.479 76.5258L104.583 76.3461L104.529 76.1455L100.016 59.3258L100.016 59.3254L98.9326 55.2781L98.6283 54.1412L98.0212 55.1495L95.584 59.1971L95.584 59.1971L95.5791 59.2055L80.8669 84.7486L80.8658 84.7504L66.0634 110.204L66.063 110.204L51.4039 135.5H34.8676Z" fill="black" stroke="#CCCCCC"/>
</svg>
