<?xml version="1.0" encoding="utf-8"?>
<!-- Generator: Adobe Illustrator 25.0.0, SVG Export Plug-In . SVG Version: 6.00 Build 0)  -->
<svg version="1.1"
	 id="Layer_1" text-rendering="geometricPrecision" image-rendering="optimizeQuality" shape-rendering="geometricPrecision" xmlns:xodm="http://www.corel.com/coreldraw/odm/2003"
	 xmlns="http://www.w3.org/2000/svg" xmlns:xlink="http://www.w3.org/1999/xlink" x="0px" y="0px" viewBox="0 0 511.9 512"
	 style="enable-background:new 0 0 511.9 512;" xml:space="preserve">
<style type="text/css">
	.st0{fill:#F7931A;}
	.st1{fill:#FFFFFF;}
</style>
<g id="Icon">
	<path class="st0" d="M504.3,317.9C470.1,455.1,331.2,538.5,194,504.3C56.9,470.1-26.5,331.2,7.7,194.1
		C41.8,56.9,180.7-26.5,317.9,7.7C455,41.9,538.5,180.8,504.3,317.9L504.3,317.9L504.3,317.9z"/>
	<path class="st1" d="M368.9,219.5c5.1-34.1-20.8-52.4-56.3-64.6l11.5-46.1l-28.1-7l-11.2,44.9c-7.4-1.8-15-3.6-22.5-5.3l11.3-45.2
		l-28.1-7l-11.5,46.1c-6.1-1.4-12.1-2.8-17.9-4.2l0-0.1l-38.7-9.7l-7.5,30c0,0,20.8,4.8,20.4,5.1c11.4,2.8,13.4,10.4,13.1,16.3
		l-13.1,52.6c0.8,0.2,1.8,0.5,2.9,0.9c-0.9-0.2-1.9-0.5-3-0.7l-18.4,73.6c-1.4,3.5-4.9,8.6-12.9,6.7c0.3,0.4-20.4-5.1-20.4-5.1
		l-13.9,32.2l36.6,9.1c6.8,1.7,13.5,3.5,20,5.2l-11.6,46.7l28.1,7l11.5-46.2c7.7,2.1,15.1,4,22.4,5.8l-11.5,46l28.1,7l11.6-46.6
		c47.9,9.1,83.9,5.4,99.1-37.9c12.2-34.9-0.6-55-25.8-68.1C351.4,256.5,365.2,244.5,368.9,219.5L368.9,219.5L368.9,219.5z
		 M304.7,309.5c-8.7,34.9-67.4,16-86.5,11.3l15.4-61.8C252.7,263.7,313.7,273.1,304.7,309.5L304.7,309.5z M313.4,219
		c-7.9,31.7-56.8,15.6-72.7,11.7l14-56.1C270.5,178.5,321.6,185.9,313.4,219L313.4,219z"/>
</g>
</svg>
