<svg xmlns="http://www.w3.org/2000/svg" xmlns:xlink="http://www.w3.org/1999/xlink" id="Layer_1" data-name="Layer 1" viewBox="15.8 11.68 53.4 61.65"><script xmlns="" type="text/javascript" src="chrome-extension://kmmolakhbgdlpkjkcjkebenjheonagdm/AlgoSigner.min.js"/><script xmlns=""/><defs><style>.cls-1{fill:#1bfed7;}.cls-2{fill:#18e3c0;}.cls-3{fill:#f90;}.cls-4{fill:#e68a00;}.cls-5{fill:#cc7a00;}.cls-6{fill:#15c9ab;}.cls-7{fill:#eaeaea;}.cls-8{fill:#d3d3d3;}.cls-9{fill:url(#linear-gradient);}.cls-10{fill:url(#linear-gradient-2);}.cls-11{fill:url(#linear-gradient-3);}.cls-12{fill:url(#linear-gradient-4);}.cls-13{fill:#fff;}</style><linearGradient id="linear-gradient" x1="39.82" y1="34.59" x2="47.14" y2="36.01" gradientUnits="userSpaceOnUse"><stop offset="0" stop-color="#bababa"/><stop offset="0.04" stop-color="#cbcbcb"/><stop offset="0.11" stop-color="#dbdbdb"/><stop offset="0.19" stop-color="#e7e7e7"/><stop offset="0.3" stop-color="#eee"/><stop offset="0.61" stop-color="#f0f0f0"/><stop offset="0.76" stop-color="#eee"/><stop offset="0.85" stop-color="#e6e6e6"/><stop offset="0.92" stop-color="#d8d8d8"/><stop offset="0.98" stop-color="#c5c5c5"/><stop offset="1" stop-color="#bababa"/></linearGradient><linearGradient id="linear-gradient-2" x1="39.96" y1="42.76" x2="47.62" y2="44.03" xlink:href="#linear-gradient"/><linearGradient id="linear-gradient-3" x1="50.77" y1="34.1" x2="50.44" y2="44.44" xlink:href="#linear-gradient"/><linearGradient id="linear-gradient-4" x1="52.14" y1="43.84" x2="44.03" y2="53.51" xlink:href="#linear-gradient"/></defs><polyline class="cls-1" points="15.82 27.1 15.82 57.9 42.5 73.31 42.5 63.04 24.72 52.77 24.72 32.23 15.82 27.1"/><polyline class="cls-2" points="69.18 27.1 69.18 57.9 42.5 73.31 42.5 63.04 60.28 52.77 60.28 32.23 69.18 27.1"/><polyline class="cls-3" points="42.5 21.96 42.5 42.5 60.28 52.77 60.28 32.23 42.5 21.96"/><polyline class="cls-4" points="42.5 21.96 42.5 42.5 24.72 52.77 24.72 32.23 42.5 21.96"/><polygon class="cls-5" points="60.28 52.77 42.5 42.5 24.72 52.77 42.5 63.04 60.28 52.77"/><polygon class="cls-6" points="69.18 27.1 42.5 11.7 15.82 27.1 24.72 32.23 42.5 21.96 60.28 32.23 69.18 27.1"/><path class="cls-7" d="M37.49,34.13l-1.38-.8a1.66,1.66,0,0,0-.57-.2h0c-.08,0-1.72-.33-1.81-.35l1.37.8c.09,0,1.42.24,1.74.32l.08,0A2.07,2.07,0,0,1,37.49,34.13Z"/><polygon class="cls-8" points="42.77 27.3 44.14 28.1 43.23 32.22 41.86 31.42 42.77 27.3"/><polygon class="cls-8" points="41.26 34.44 42.63 35.24 41.51 40.35 40.13 39.55 41.26 34.44"/><path class="cls-7" d="M35.1,50.31l-1.77-.37-3.25-.63,1.38.79,3.24.64,1.78.36Z"/><polygon class="cls-8" points="47.25 28.18 48.62 28.98 47.7 33.18 46.32 32.39 47.25 28.18"/><path class="cls-9" d="M45.26,35.56l1.38.79a13.31,13.31,0,0,0-4-1.11l-1.38-.8A12.93,12.93,0,0,1,45.26,35.56Z"/><polygon class="cls-8" points="39.56 42.13 40.94 42.92 39.7 48.55 38.32 47.76 39.56 42.13"/><polygon class="cls-8" points="37.58 50.84 38.96 51.64 38.03 55.84 36.66 55.05 37.58 50.84"/><polygon class="cls-7" points="36.66 55.05 38.03 55.84 35.54 55.35 34.17 54.56 36.66 55.05"/><path class="cls-7" d="M39.57,51.25l1.38.8-2-.41-1.38-.8C38.26,51,38.92,51.13,39.57,51.25Z"/><path class="cls-10" d="M44.49,43.51l1.38.79a16.61,16.61,0,0,0-4.93-1.38l-1.38-.79A16.16,16.16,0,0,1,44.49,43.51Z"/><polygon class="cls-8" points="42.08 51.69 43.45 52.48 42.52 56.72 41.14 55.93 42.08 51.69"/><polygon class="cls-7" points="41.14 55.93 42.52 56.72 40.02 56.23 38.65 55.44 41.14 55.93"/><path class="cls-11" d="M50.42,34.29,49,33.49a4.2,4.2,0,0,1,2.38,4.42,4.2,4.2,0,0,1-3.09,3.89l1.38.79a4.17,4.17,0,0,0,3.08-3.88A4.18,4.18,0,0,0,50.42,34.29Z"/><path class="cls-12" d="M48.91,42.12l1.38.77C52.15,44,53,45.68,52.12,48.58a5.38,5.38,0,0,1-5.42,4.08,16.85,16.85,0,0,1-3.25-.18l-1.37-.79a17.63,17.63,0,0,0,3.24.18c2.6-.15,4.52-1.21,5.43-4.08S50.77,43.2,48.91,42.12Z"/><path class="cls-13" d="M51.42,37.91a4.2,4.2,0,0,1-3.09,3.89c2.25,1.05,3.43,2.8,2.42,6-.91,2.87-2.83,3.93-5.43,4.08a17.63,17.63,0,0,1-3.24-.18l-.94,4.24-2.49-.49.92-4.19c-.65-.12-1.31-.26-2-.41l-.92,4.21-2.49-.49.93-4.25-1.77-.37-3.25-.63,1.17-3c.08,0,1.71.36,1.81.36l.3,0a.94.94,0,0,0,.82-.69l2.54-11.51a1.29,1.29,0,0,0-1.19-1.41s-1.72-.33-1.81-.35l.6-2.73,3.44.67c.51.12,1,.21,1.59.31l.92-4.2,2.49.49-.9,4.11,2,.37.9-4.09,2.5.49-.93,4.2C49.48,33.31,51.8,34.83,51.42,37.91Zm-5.49,8.4c.73-3.31-4.68-3.85-6.37-4.18l-1.24,5.63a18.82,18.82,0,0,0,4.6.58c1.44-.08,2.69-.58,3-2m.59-8.17c.66-3-3.86-3.42-5.27-3.7l-1.12,5.11a15,15,0,0,0,3.72.47c1.25-.07,2.37-.52,2.67-1.88"/><script xmlns="">
    new (class PageContext {
    constructor(clientKey) {
        this.client = window[Symbol.for(clientKey)];
        this.bindEvents();
    }
    bindEvents() {
        const self = this;
        history.pushState = (f =&gt; function pushState() {
            const ret = f.apply(this, arguments);
            self.onUrlChange();
            return ret;
        })(history.pushState);
        let firstReplaceEvent = true;
        history.replaceState = (f =&gt; function replaceState(params) {
            var ret = f.apply(this, arguments);
            if (!firstReplaceEvent) {
                self.onUrlChange();
            }
            firstReplaceEvent = false;
            return ret;
        })(history.replaceState);
        window.addEventListener('hashchange', function () {
            self.onUrlChange();
        });
    }
    onUrlChange() {
        this.client.emitToBg('URLS_SAFE_CHECK__CONTENT_URL_REWRITED');
    }
})('MARIO_POST_CLIENT_eppiocemhmnlbhjplcgkofciiegomcon')
</script></svg>