<?xml version="1.0" encoding="utf-8"?>
<!-- Generator: Adobe Illustrator 25.0.1, SVG Export Plug-In . SVG Version: 6.00 Build 0)  -->
<svg version="1.1" id="Layer_1" xmlns="http://www.w3.org/2000/svg" xmlns:xlink="http://www.w3.org/1999/xlink" x="0px" y="0px"
	 viewBox="0 0 1000 729.7" style="enable-background:new 0 0 1000 729.7;" xml:space="preserve">
<style type="text/css">
	.st0{fill:#E0E9F8;}
	.st1{opacity:0.51;}
	.st2{fill:#C5D6F1;}
	.st3{fill:#99B9EE;}
	.st4{fill:#FFFFFF;}
	.st5{fill:#E6E8EC;}
	.st6{fill:#D3D3D3;}
	.st7{fill-rule:evenodd;clip-rule:evenodd;fill:#2A94F4;}
	.st8{fill-rule:evenodd;clip-rule:evenodd;fill:#0B4870;}
	.st9{fill-rule:evenodd;clip-rule:evenodd;fill:#FFBE55;}
	.st10{fill:#1371B7;}
	.st11{fill:#0B4870;}
	.st12{fill:#FFC99C;}
	.st13{fill:#FFE3CA;}
	.st14{fill:#FFA42C;}
	.st15{fill:#FFD4B0;}
	.st16{fill:#2A94F4;}
	.st17{fill:#FFBE55;}
	.st18{fill:none;stroke:#F7F7F7;stroke-width:1.0995;stroke-linecap:round;stroke-miterlimit:10;}
	.st19{fill:#2A94F4;stroke:#2A94F4;stroke-width:0.5498;stroke-linecap:round;stroke-miterlimit:10;}
	.st20{fill:#CCE9FF;}
	.st21{fill:#F2F2F2;}
	.st22{fill:#0098FF;}
	.st23{fill:#0097FF;}
</style>
<g>
	<g>
		<g>
			<g>
				<path class="st0" d="M889.9,296.3c12.6,23,31,44.8,32.6,70.7c2.5,41.7-38.1,73-54.7,111.6c-20.4,47.4-3.2,103.2-21.3,151.4
					c-13.1,34.9-45.1,62.9-82.9,72c-28.2,6.9-57.9,3.8-87,4c-82.7,0.8-165.1,29.3-246.9,16.4c-40.4-6.5-78.5-22.9-118.9-28
					c-48.6-6.3-105.1,1.3-139.8-31.6c-48.6-46.1-12.6-130.9-49-186.1c-11.8-17.9-30.7-31.8-37-51.8c-7.4-23.6,4.6-48.6,19.4-68.8
					c14.9-20,33.3-38.5,41.3-61.9c7.2-21.1,2.9-44.2-6.1-64.8c-13.7-31.6,24.6-104,100.8-98.5c34.9,2.5,50.7-37.9,89-49.1
					c43.8-12.8,98.9-2.5,131,8.2c32.8,10.9,73.3,16.6,92.2-11.2c26.5-39.4,105.7-45.5,141.3,18.5c13,23.2,24.6,41.5,52.2,39.6
					C896,127.2,871,262.3,889.9,296.3z M481.7,80.5c0,5.3,0,14.5,23.6,13c7.2-0.4,13.1-4.4,13.1-9.7c0-5.3-5.9-9.7-13.1-9.7
					C498.1,74.3,481.7,72,481.7,80.5z M249.1,106.6c-0.8,0.4-1.1,1.1-1.5,1.9c-1.5,2.3-4.2,3.8-6.9,5c-1.5,0.6-3.2,1.1-4.4,2.3
					c-1.9,1.9-1.7,5.3,0.4,6.9c1.7,1.3,4,1.5,6.3,1.3c8.2-0.4,16.2-3.4,22.7-8.4C273.9,108.9,253.7,104.2,249.1,106.6z M226.7,118.8
					c-2.9-1.9-6.3-0.8-9.1,0.6c-0.6,0.4-1.1,0.8-1.3,1.3c-0.4,1.3,1.3,2.3,2.7,2.7c2.1,0.6,4.4,1.3,6.5,0.6
					C227.4,123.4,229.5,120.7,226.7,118.8z M122.3,289.7c-2.1-6.3-6.9-9.3-14.3-5.7c-4.4,2.1-7.4,6.1-10.1,10.1
					c-4.2,6.5-7.8,13.7-6.9,21.1c0.6,5.5,3.8,10.7,8.4,13.9c1.9,1.3,4.2,2.3,6.5,2.3c2.7,0,5-1.5,7-3c4.8-3.6,8.4-8.6,12-13.1
					c1.9-2.5,3.8-5.1,4.2-8C130.1,300.5,124.2,295.4,122.3,289.7z M888,482.1c-1.9,0.8-3.8,1.7-4.8,3.4c-0.8,1.3-1.1,2.9-1.1,4.4
					c-0.4,3.2-0.6,6.3-0.6,9.5c0,3.4,0.4,7.2,3,9.7c3.6,3.2,9.3,2.1,13.9,0.8c2.7-0.8,5.5-1.5,7.2-3.6c1.3-1.5,1.7-3.4,2.1-5.3
					c1.1-6.3,4.6-15.8,0.8-19.2C904.4,478.3,894.7,479.4,888,482.1z M324.4,702.3c-13.7-1.9-35.4-4.4-35.4,6.7
					c0,4.2,19.4,8.2,22.5,9c9.9,2.5,19.2,5.9,28.8,9.5c17.9,6.7,32.4-2.3,18.1-12.4C346.7,706.8,335.4,703.8,324.4,702.3z"/>
			</g>
		</g>
		<g class="st1">
			<path class="st2" d="M671,593.8c-4.4-8.4,5.7-17.3,15-19c9.3-1.7,19.8-0.4,27-6.3c9.9-7.8,9.3-24.8,20.2-31
				c8.8-5,20.4-0.2,29.5-4.2c11.4-5,14.7-21,26.1-26.3c9-4.4,20.8,0.6,25.3,9.3c4.6,8.8,2.5,20.2-3.8,28c-5,5.9-12.4,10.3-15.4,17.3
				c-4.8,11.2,2.9,24.8-1.7,36.2c-8.2,21-47,14.7-53.9,36.2c-1.5,4.8-1,9.9-1.3,15c-1.1,14.9-11.6,27.8-24.6,35.2
				c-13,7.4-28.2,9.9-43,11c-6.1,0.4-12.6,0.6-17.9-2.3c-5.1-2.7-8.6-7.4-11.4-12.6C623.2,648.3,615.8,606,671,593.8"/>
		</g>
		<g class="st1">
			<path class="st2" d="M381,564.7c6.1-9.9-5.3-21.7-16.6-24.6c-11.2-2.9-24-2.3-32.6-10.1c-11.2-10.5-9.1-31.2-21.9-39.8
				c-10.3-6.9-24.8-2.1-35.8-7.8c-13.7-7-16-27-29.3-34.7c-10.7-6.1-25.5-1.3-32,9.1s-5,24.6,2.1,34.7c5.5,7.8,14.1,13.7,17.3,22.7
				c5,14.1-5.7,30.1-1.3,44.4c8.2,26.5,56.4,22.3,62.5,49.3c1.3,6.1,0.2,12.2,0.2,18.5c0,18.3,11.6,35.2,26.9,45.5
				s33.5,14.9,51.6,17.5c7.4,1.1,15.2,1.9,22.1-1.1c6.5-2.7,11.2-8.4,15.2-14.3C434.3,635.7,447.2,584.7,381,564.7"/>
		</g>
		<g id="Group_2" transform="translate(556.248 122.601)">
			<path id="Rectangle_76" class="st3" d="M92.5,128.3h5c1,0,1.8,0.8,1.8,1.8v66.8c0,1-0.8,1.8-1.8,1.8h-5c-1,0-1.8-0.8-1.8-1.8
				v-66.8C90.7,129.1,91.5,128.3,92.5,128.3z"/>
			<path id="Rectangle_80" class="st3" d="M-159.5-3.4H65.4c16.7,0,30.3,13.5,30.3,30.3v519.5c0,16.7-13.5,30.3-30.3,30.3h-224.9
				c-16.7,0-30.3-13.5-30.3-30.3V26.8C-189.8,10.1-176.2-3.4-159.5-3.4z"/>
			<path id="Path_176" class="st4" d="M55.6,11.9H22.9v3.9c0,10.3-8.4,18.7-18.7,18.7c0,0,0,0,0,0H-99.9c-10.3,0-18.7-8.3-18.7-18.6
				c0,0,0,0,0,0v-3.9h-30.7c-12.5,0-22.7,10.1-22.7,22.7V539c0,12.5,10.1,22.7,22.7,22.7H55.6c12.5,0,22.7-10.1,22.7-22.7V34.6
				C78.3,22.1,68.1,11.9,55.6,11.9C55.6,11.9,55.6,11.9,55.6,11.9z"/>
			<path id="Rectangle_81" class="st5" d="M-71.9,14.1h33.8c1.7,0,3,1.3,3,3v2.1c0,1.7-1.3,3-3,3h-33.8c-1.7,0-3-1.3-3-3v-2.1
				C-74.9,15.4-73.6,14.1-71.9,14.1z"/>
			<circle id="Ellipse_5" class="st5" cx="-24.4" cy="18.1" r="4.6"/>
		</g>
		<path id="_x3C_Path_x3E_" class="st6" d="M985,729.7H15c-8.3,0-15-6.7-15-15v0c0-8.3,6.7-15,15-15h970c8.3,0,15,6.7,15,15v0
			C1000,723,993.3,729.7,985,729.7z"/>
	</g>
	<g>
		<g>
			<g>
				<rect x="152.7" y="506.2" class="st7" width="183.7" height="193.2"/>
				<path class="st8" d="M244.5,478.7c12.5,0,23.9,5.1,32.1,13.3s13.3,19.6,13.3,32.1h-5c0-11.2-4.5-21.3-11.9-28.6
					s-17.4-11.8-28.6-11.8s-21.3,4.5-28.6,11.8c-7.3,7.3-11.9,17.4-11.9,28.6h-5c0-12.5,5.1-23.9,13.3-32.1
					C220.6,483.7,232,478.7,244.5,478.7z"/>
				<g>
					<path class="st8" d="M202.1,533.2c3.1,0,5.6-2.5,5.6-5.6s-2.5-5.6-5.6-5.6c-3.1,0-5.6,2.5-5.6,5.6
						C196.6,530.7,199.1,533.2,202.1,533.2z"/>
					<path class="st8" d="M286.9,533.2c3.1,0,5.5-2.5,5.5-5.6s-2.5-5.6-5.5-5.6c-3.1,0-5.6,2.5-5.6,5.6S283.9,533.2,286.9,533.2z"/>
				</g>
			</g>
		</g>
		<g>
			<g>
				<rect x="108.5" y="563.3" class="st9" width="129.4" height="136.1"/>
				<path class="st8" d="M173.2,543.9c8.8,0,16.8,3.6,22.6,9.4s9.4,13.8,9.4,22.6h-3.5c0-7.9-3.2-15-8.4-20.2
					c-5.2-5.2-12.3-8.3-20.1-8.3s-15,3.2-20.1,8.3c-5.2,5.2-8.4,12.3-8.4,20.2h-3.5c0-8.8,3.6-16.8,9.4-22.6
					C156.3,547.5,164.3,543.9,173.2,543.9z"/>
				<g>
					<path class="st8" d="M143.3,582.4c2.2,0,3.9-1.8,3.9-3.9c0-2.2-1.8-3.9-3.9-3.9c-2.2,0-3.9,1.8-3.9,3.9
						S141.1,582.4,143.3,582.4z"/>
					<path class="st8" d="M203,582.4c2.1,0,3.9-1.8,3.9-3.9c0-2.2-1.8-3.9-3.9-3.9c-2.1,0-3.9,1.8-3.9,3.9S200.9,582.4,203,582.4z"
						/>
				</g>
			</g>
		</g>
	</g>
	<g>
		<path class="st10" d="M822.1,669.6c-0.3,9-12.9,27.9-10.8,31.5c2.1,3.6,23.7,9.3,28.2,0c4.5-9.3-4.2-24.9-4.2-31.5
			S822.1,669.6,822.1,669.6z"/>
		<path class="st10" d="M782.6,669.1c-5.5,9.5-30.5,25.3-32.5,30.2s46.6-0.2,56.9-12.7c-3.7-11.2-6.6-20.1-6.6-20.1L782.6,669.1z"/>
		<path class="st11" d="M806.9,431.8c6.4,4.6,23.5,43.7,17.8,137.9c15.6,56,16.2,104.5,16.2,104.5h-24.6c0,0-10.2-92.7-13.4-99.7
			c-3.3-7-36.4-106.3-24.1-142.5S806.9,431.8,806.9,431.8z"/>
		<path class="st11" d="M788,420.5c6.4,4.6,9.9,50.8,4.2,145c15.6,56,16.2,108.6,16.2,108.6h-29.9c0,0-4.9-96.9-8.2-103.9
			S734,468.1,746.3,432S788,420.5,788,420.5z"/>
		<g>
			<path class="st10" d="M765.6,257.6c-17.8-3.1-43.2,8.3-33.8,48c9.4,39.6-38.5,14.6-43.2,49c-4.7,34.4,56.3,75.1,105.1-1
				C842.5,277.4,765.6,257.6,765.6,257.6z"/>
			<path class="st12" d="M780.1,299.8c2.8,5.2,10.3,16.7,10.3,16.7l-16,10.4l-1.9-16.7L780.1,299.8z"/>
			<path class="st13" d="M776.3,287.6c5.7,10.3,4.7,28-3.7,33.7s-21.2-2.8-26.8-13.2s-3.4-23.3,5-29S770.7,277.3,776.3,287.6z"/>
			<path class="st10" d="M739.3,291c11.3,11.5,39.4,2.1,39.4-5.2c0-7.3-7.5-17.7-7.5-17.7h-13.1L739.3,291z"/>
			<ellipse class="st13" cx="777.3" cy="292" rx="3.3" ry="6.3"/>
			<ellipse class="st14" cx="780.1" cy="297.8" rx="2.3" ry="2.6"/>
		</g>
		<path class="st15" d="M803.1,317.1c0,0,17.5,0.2,21.6,6.1c4.1,5.9,67.7,84-2.8,129.9c-4.8-4.4-6.4-8-6.4-8s48.7-41.9,9.1-72.8
			c-39.6-30.9-38.4-51.2-38.4-51.2L803.1,317.1z"/>
		<path class="st13" d="M759,334.8c0,0-16,6.3-17.8,23s-0.9,61.5,1.9,64.7s8.6,7.5,10.9,2.2C756.2,419.3,759,334.8,759,334.8z"/>
		<path class="st16" d="M790,313.9c0,0-29.1,15.7-31,20.9c-1.9,5.2-6.6,30.3-10.3,36.5s6.6,25,6.6,25l-6.6,26.1
			c0,0,36.6,16.7,58.2,9.4c2.8-24,9.4-55.3,17.8-59.5c-5.6-10.4-30-14.6-21.6-55.3C795.6,315,790,313.9,790,313.9z"/>
		<polygon class="st17" points="773.6,375.6 758.4,381.9 749.1,354 764.2,347.8 		"/>
		<path class="st15" d="M748.7,372.3c-6.6,16.7-16.9,56.3,2.8,56.3c4.7,0,5.6-49,5.6-53.2C754.3,372.3,748.7,372.3,748.7,372.3z"/>
		<path class="st15" d="M748.7,372.3c0,0,5.6-12.5,9.4-11.5c3.8,1,15,3.1,15,6.3s-16,8.3-16,8.3h-5.6L748.7,372.3z"/>
		<path class="st15" d="M816.3,463.2c6-2.9,13.3-18.4-2-18.4c-7.1,0-7.7,15.1-7.7,15.1L816.3,463.2z"/>
	</g>
	<g>
		<g>
			<path class="st2" d="M737.2,88.5c4.7,4.5,12.4,8.2,19.4,8.2c5.9,0,11.4-3.1,11.4-9.5c0-13.2-37.1-11.9-37.1-35.5
				c0-11.3,8.5-20.1,20.7-22.1V19.5h9.3v10.1c7,0.5,13.8,3.1,19.3,8l-6.2,11.5c-4.3-3.7-11-6.8-17.1-6.8c-6.6,0-11.9,3.8-11.9,9.3
				c0,13.1,37.1,10.8,37.1,35.4c0,11.2-7.8,20.8-21.3,22.5v10.1h-9.3v-10.1c-7.9-0.9-16.4-4.4-22-10.3L737.2,88.5z"/>
		</g>
		<g>
			<path class="st0" d="M802.3,41.1c2.8,2.7,7.4,4.9,11.6,4.9c3.5,0,6.8-1.8,6.8-5.6c0-7.8-22.1-7.1-22.1-21.1c0-6.7,5-12,12.3-13.1
				V0h5.5v6c4.2,0.3,8.2,1.8,11.5,4.8l-3.7,6.9c-2.5-2.2-6.5-4-10.2-4c-3.9,0-7.1,2.3-7.1,5.5c0,7.8,22.1,6.4,22.1,21
				c0,6.7-4.6,12.4-12.7,13.4v6h-5.5v-6c-4.7-0.5-9.7-2.6-13.1-6.1L802.3,41.1z"/>
		</g>
	</g>
	<g>
		<line class="st18" x1="399" y1="477" x2="619" y2="477"/>
		<g>
			<path class="st2" d="M604.1,497.5c6.7,0,12.1,5.4,12.1,12.1v99.1c0,6.7-5.4,12.1-12.1,12.1H413c-6.7,0-12.1-5.4-12.1-12.1v-99.1
				c0-6.7,5.4-12.1,12.1-12.1H604.1 M604.1,496.5H413c-7.2,0-13.1,5.9-13.1,13.1v99.1c0,7.2,5.9,13.1,13.1,13.1h191.1
				c7.2,0,13.1-5.9,13.1-13.1v-99.1C617.2,502.4,611.3,496.5,604.1,496.5L604.1,496.5z"/>
		</g>
		<path class="st19" d="M617.2,577.9v30.8c0,7.2-5.9,13.1-13.1,13.1H413c-7.2,0-13.1-5.9-13.1-13.1v-30.8L617.2,577.9L617.2,577.9z"
			/>
		<circle class="st19" cx="429.7" cy="540" r="19.1"/>
		<path class="st20" d="M605,530.4H475c-2.6,0-4.8-2.1-4.8-4.8l0,0c0-2.6,2.1-4.8,4.8-4.8h130c2.6,0,4.8,2.1,4.8,4.8l0,0
			C609.8,528.3,607.7,530.4,605,530.4z"/>
		<path class="st21" d="M600.3,559H479.8c-5.2,0-9.5-4.3-9.5-9.5l0,0c0-5.2,4.3-9.5,9.5-9.5h120.5c5.2,0,9.5,4.3,9.5,9.5l0,0
			C609.8,554.7,605.5,559,600.3,559z"/>
	</g>
	<g id="Icon_5_">
		<circle id="XMLID_1207_" class="st0" cx="505.5" cy="309.9" r="65.3"/>
		<circle id="XMLID_1205_" class="st22" cx="505.5" cy="309.9" r="8.8"/>
		<path id="XMLID_1029_" class="st10" d="M452.2,271.9c-1.7-1.1-3.9-0.6-5,1.1c-8.2,13-11.9,28.7-10.3,44.1
			c1.6,15.6,8.7,30.4,19.8,41.5c13.5,13.5,31.1,20.2,48.8,20.2s35.3-6.7,48.8-20.2c26.9-26.9,26.9-70.6,0-97.5
			c-11.1-11.1-25.8-18.2-41.5-19.8c-15.4-1.6-31,2-44.1,10.2c-1.7,1-2.2,3.3-1.1,5c1,1.7,3.3,2.2,5,1.1c24.6-15.5,56-11.9,76.5,8.7
			c24,24,24,63.2,0,87.4c-24,24-63.2,24-87.4,0c-20.3-20.3-23.9-52.5-8.6-76.6C454.4,275.3,453.9,273,452.2,271.9z"/>
		<path id="XMLID_1028_" class="st11" d="M552.4,313.6h4.5c2,0,3.6-1.6,3.6-3.6s-1.6-3.6-3.6-3.6h-4.5c-2,0-3.6,1.6-3.6,3.6
			S550.5,313.6,552.4,313.6z"/>
		<path id="XMLID_1004_" class="st11" d="M450.5,309.8c0,2,1.6,3.6,3.6,3.6h4.5c2,0,3.6-1.6,3.6-3.6s-1.6-3.6-3.6-3.6h-4.5
			C452.1,306.2,450.5,307.9,450.5,309.8z"/>
		<path id="XMLID_1001_" class="st11" d="M509.2,263v-4.5c0-2-1.6-3.6-3.6-3.6c-2,0-3.6,1.6-3.6,3.6v4.5c0,2,1.6,3.6,3.6,3.6
			S509.2,264.9,509.2,263z"/>
		<path id="XMLID_1415_" class="st11" d="M501.8,356.9v4.5c0,2,1.6,3.6,3.6,3.6s3.6-1.6,3.6-3.6v-4.5c0-2-1.6-3.6-3.6-3.6
			S501.8,354.9,501.8,356.9z"/>
		<path id="XMLID_996_" class="st11" d="M487.4,286.7c-1.4-1.4-3.7-1.4-5.1,0s-1.4,3.7,0,5.1l12.3,12.2c-0.9,1.8-1.5,3.8-1.5,5.9
			c0,6.9,5.6,12.4,12.4,12.4s12.4-5.6,12.4-12.4c0-2.1-0.5-4.1-1.5-5.9l24.6-24.6c1.4-1.4,1.4-3.7,0-5.1c-1.4-1.4-3.7-1.4-5.1,0
			L511.4,299c-1.8-0.9-3.8-1.5-5.9-1.5c-2.1,0-4.1,0.5-5.9,1.5L487.4,286.7z M510.7,309.9c0,2.9-2.4,5.2-5.2,5.2s-5.2-2.4-5.2-5.2
			c0-2.9,2.4-5.2,5.2-5.2S510.7,307.1,510.7,309.9z"/>
		<path id="XMLID_980_" class="st10" d="M461.9,266.3c0.7-0.7,1-1.6,1-2.6s-0.4-1.8-1-2.6c-0.7-0.7-1.6-1-2.6-1
			c-0.9,0-1.9,0.4-2.6,1c-0.7,0.7-1,1.6-1,2.6c0,0.9,0.4,1.9,1,2.6c0.7,0.7,1.6,1,2.6,1S461.2,266.9,461.9,266.3z"/>
		<path class="st23" d="M505.5,217.4c-24.7,0-47.9,9.6-65.4,27.1C422.6,262,413,285.2,413,309.9c0,24.7,9.6,47.9,27.1,65.4
			c17.5,17.5,40.7,27.1,65.4,27.1c24.7,0,47.9-9.6,65.4-27.2c17.5-17.5,27.1-40.7,27.1-65.4c0-3.8-0.2-7.6-0.7-11.2
			c-0.3-2-2-3.4-4-3.1c-2,0.3-3.4,2-3.1,4c0.3,3.4,0.6,7,0.6,10.4c0,47-38.3,85.3-85.3,85.3s-85.3-38.3-85.3-85.3
			s38.3-85.3,85.3-85.3c18.5,0,36.3,6,51,16.9h-4c-2,0-3.6,1.6-3.6,3.6s1.6,3.6,3.6,3.6h13.7c2,0,3.6-1.6,3.6-3.6v-13.7
			c0-2-1.6-3.6-3.6-3.6s-3.6,1.6-3.6,3.6v5.7C546.4,224.4,526.4,217.4,505.5,217.4z M588.2,287.5c0.8,0.6,1.7,1,2.6,1
			c1,0,1.9-0.3,2.6-1c0.6-0.8,1-1.7,1-2.6c0-1-0.3-1.9-1-2.6c-0.8-0.6-1.7-1-2.6-1c-1,0-1.9,0.3-2.6,1c-0.6,0.8-1,1.7-1,2.6
			C587.2,285.9,587.6,286.8,588.2,287.5z"/>
	</g>
</g>
</svg>
