<svg width="425" height="311" viewBox="0 0 425 311" fill="none" xmlns="http://www.w3.org/2000/svg">
<path d="M378.208 125.885C383.563 135.66 391.383 144.925 392.063 155.932C393.125 173.655 375.87 186.957 368.815 203.362C360.145 223.507 367.455 247.222 359.763 267.707C354.195 282.54 340.595 294.44 324.53 298.307C312.545 301.24 299.923 299.922 287.555 300.007C252.408 300.347 217.388 312.46 182.623 306.977C165.453 304.215 149.26 297.245 132.09 295.077C111.435 292.4 87.4225 295.63 72.675 281.647C52.0201 262.055 67.3201 226.015 51.8501 202.555C46.8351 194.947 38.8026 189.04 36.1251 180.54C32.9801 170.51 38.08 159.885 44.37 151.3C50.7025 142.8 58.5226 134.937 61.9226 124.992C64.9826 116.025 63.1551 106.207 59.3301 97.4524C53.5076 84.0224 69.7851 53.2524 102.17 55.5899C117.003 56.6524 123.718 39.4824 139.995 34.7224C158.61 29.2824 182.028 33.6599 195.67 38.2074C209.61 42.8399 226.823 45.2624 234.855 33.4474C246.118 16.7024 279.778 14.1099 294.908 41.3099C300.433 51.1699 305.363 58.9474 317.093 58.1399C380.8 54.0174 370.175 111.392 378.208 125.885ZM204.723 34.1699C204.723 36.4224 204.723 40.3324 214.753 39.6949C217.813 39.5249 220.32 37.8249 220.32 35.5724C220.32 33.3199 217.813 31.4499 214.753 31.4499C211.693 31.4924 204.723 30.5574 204.723 34.1699ZM105.868 45.2624C105.528 45.4324 105.4 45.7299 105.23 46.0699C104.593 47.0474 103.445 47.6849 102.298 48.1949C101.66 48.4499 100.938 48.6624 100.428 49.1724C99.62 49.9799 99.7051 51.4249 100.598 52.1049C101.32 52.6574 102.298 52.7424 103.275 52.6574C106.76 52.4874 110.16 51.2124 112.923 49.0874C116.408 46.2399 107.823 44.1999 105.868 45.2624ZM96.3476 50.4474C95.1151 49.6399 93.6701 50.1074 92.4801 50.7024C92.2251 50.8724 92.0125 51.0424 91.9275 51.2549C91.7575 51.8074 92.4801 52.2324 93.0751 52.4024C93.9676 52.6574 94.9451 52.9549 95.8376 52.6574C96.6451 52.4024 97.5376 51.2549 96.3476 50.4474ZM51.9776 123.08C51.0851 120.402 49.0451 119.127 45.9001 120.657C44.0301 121.55 42.755 123.25 41.6075 124.95C39.8225 127.712 38.2926 130.772 38.6751 133.917C38.9301 136.255 40.29 138.465 42.245 139.825C43.0525 140.377 44.03 140.802 45.0075 140.802C46.155 140.802 47.1325 140.165 47.9825 139.527C50.0225 137.997 51.5525 135.872 53.0825 133.96C53.89 132.897 54.6976 131.792 54.8676 130.56C55.2926 127.67 52.7851 125.502 51.9776 123.08ZM377.4 204.807C376.593 205.147 375.785 205.53 375.36 206.252C375.02 206.805 374.893 207.485 374.893 208.122C374.723 209.482 374.638 210.8 374.638 212.16C374.638 213.605 374.808 215.22 375.913 216.282C377.443 217.642 379.865 217.175 381.82 216.622C382.968 216.282 384.158 215.985 384.88 215.092C385.433 214.455 385.603 213.647 385.773 212.84C386.24 210.162 387.728 206.125 386.113 204.68C384.37 203.192 380.248 203.702 377.4 204.807ZM137.87 298.392C132.048 297.585 122.825 296.522 122.825 301.24C122.825 303.025 131.07 304.725 132.388 305.065C136.595 306.127 140.548 307.572 144.628 309.102C152.235 311.95 158.398 308.125 152.32 303.832C147.348 300.347 142.545 299.072 137.87 298.392Z" fill="#E0E9F8"/>
<g opacity="0.51">
<path opacity="0.51" d="M161.925 239.955C164.518 235.747 159.673 230.732 154.87 229.5C150.11 228.267 144.67 228.522 141.015 225.207C136.255 220.745 137.148 211.947 131.708 208.292C127.33 205.36 121.168 207.4 116.493 204.977C110.67 202.002 109.693 193.502 104.04 190.23C99.4925 187.637 93.2025 189.677 90.44 194.097C87.6775 198.56 88.315 204.552 91.3325 208.845C93.67 212.16 97.325 214.667 98.685 218.492C100.81 224.485 96.2625 231.285 98.1325 237.362C101.618 248.625 122.103 246.84 124.695 258.315C125.248 260.907 124.78 263.5 124.78 266.177C124.78 273.955 129.71 281.137 136.213 285.515C142.715 289.892 150.45 291.847 158.143 292.952C161.288 293.42 164.603 293.76 167.535 292.485C170.298 291.337 172.295 288.915 173.995 286.407C184.578 270.13 190.06 248.455 161.925 239.955Z" fill="#C5D6F1"/>
</g>
<path d="M275.718 106.59H277.843C278.268 106.59 278.608 106.93 278.608 107.355V135.745C278.608 136.17 278.268 136.51 277.843 136.51H275.718C275.293 136.51 274.953 136.17 274.953 135.745V107.355C274.953 106.93 275.293 106.59 275.718 106.59Z" fill="#99B9EE"/>
<path d="M168.618 50.5752H264.2C271.298 50.5752 277.078 56.3127 277.078 63.4527V284.24C277.078 291.338 271.34 297.118 264.2 297.118H168.618C161.52 297.118 155.74 291.38 155.74 284.24V63.4527C155.74 56.3552 161.52 50.5752 168.618 50.5752Z" fill="#99B9EE"/>
<path d="M260.036 57.1203H246.138V58.7778C246.138 63.1553 242.568 66.7253 238.191 66.7253H193.948C189.571 66.7253 186.001 63.1978 186.001 58.8203V57.1628H172.953C167.641 57.1628 163.306 61.4553 163.306 66.8103V281.223C163.306 286.535 167.598 290.87 172.953 290.87H260.036C265.348 290.87 269.683 286.578 269.683 281.223V66.7678C269.683 61.4128 265.348 57.1203 260.036 57.1203Z" fill="white"/>
<path d="M205.848 58.0552H220.213C220.935 58.0552 221.488 58.6077 221.488 59.3302V60.2227C221.488 60.9452 220.935 61.4977 220.213 61.4977H205.848C205.125 61.4977 204.573 60.9452 204.573 60.2227V59.3302C204.573 58.6077 205.125 58.0552 205.848 58.0552Z" fill="#E6E8EC"/>
<path d="M226.036 61.7102C227.115 61.7102 227.991 60.8349 227.991 59.7552C227.991 58.6755 227.115 57.8002 226.036 57.8002C224.956 57.8002 224.081 58.6755 224.081 59.7552C224.081 60.8349 224.956 61.7102 226.036 61.7102Z" fill="#E6E8EC"/>
<path d="M418.625 310.08H6.375C2.8475 310.08 0 307.232 0 303.705C0 300.177 2.8475 297.33 6.375 297.33H418.625C422.153 297.33 425 300.177 425 303.705C425 307.232 422.153 310.08 418.625 310.08Z" fill="#D3D3D3"/>
<path d="M313.31 37.5701C315.307 39.4826 318.58 41.0551 321.555 41.0551C324.062 41.0551 326.4 39.7376 326.4 37.0176C326.4 31.4076 310.632 31.9601 310.632 21.9301C310.632 17.1276 314.245 13.3876 319.43 12.5376V8.16008H323.382V12.4526C326.357 12.6651 329.247 13.7701 331.585 15.8526L328.95 20.7401C327.122 19.1676 324.275 17.8501 321.682 17.8501C318.877 17.8501 316.625 19.4651 316.625 21.8026C316.625 27.3701 332.392 26.3926 332.392 36.8476C332.392 41.6076 329.077 45.6876 323.34 46.4101V50.7026H319.387V46.4101C316.03 46.0276 312.417 44.5401 310.037 42.0326L313.31 37.5701Z" fill="#C5D6F1"/>
<path d="M340.977 17.425C342.167 18.5725 344.122 19.5075 345.907 19.5075C347.395 19.5075 348.797 18.7425 348.797 17.1275C348.797 13.8125 339.405 14.11 339.405 8.16C339.405 5.3125 341.53 3.06 344.632 2.5925V0H346.97V2.55C348.755 2.6775 350.455 3.315 351.857 4.59L350.285 7.5225C349.222 6.5875 347.522 5.8225 345.95 5.8225C344.292 5.8225 342.932 6.8 342.932 8.16C342.932 11.475 352.325 10.88 352.325 17.085C352.325 19.9325 350.37 22.355 346.927 22.78V25.33H344.59V22.78C342.592 22.5675 340.467 21.675 339.022 20.1875L340.977 17.425Z" fill="#E0E9F8"/>
<path d="M215.262 191.377C230.59 191.377 243.015 178.952 243.015 163.625C243.015 148.298 230.59 135.872 215.262 135.872C199.935 135.872 187.51 148.298 187.51 163.625C187.51 178.952 199.935 191.377 215.262 191.377Z" fill="#E0E9F8"/>
<path d="M241.187 203.575C248.229 203.575 253.937 197.866 253.937 190.825C253.937 183.783 248.229 178.075 241.187 178.075C234.146 178.075 228.437 183.783 228.437 190.825C228.437 197.866 234.146 203.575 241.187 203.575Z" fill="white"/>
<path d="M215.262 167.365C217.328 167.365 219.002 165.69 219.002 163.625C219.002 161.559 217.328 159.885 215.262 159.885C213.197 159.885 211.522 161.559 211.522 163.625C211.522 165.69 213.197 167.365 215.262 167.365Z" fill="#0098FF"/>
<path d="M235.195 165.197H237.107C237.957 165.197 238.637 164.517 238.637 163.667C238.637 162.817 237.957 162.137 237.107 162.137H235.195C234.345 162.137 233.665 162.817 233.665 163.667C233.665 164.517 234.387 165.197 235.195 165.197Z" fill="#0B4870"/>
<path d="M191.887 163.625C191.887 164.475 192.567 165.155 193.417 165.155H195.33C196.18 165.155 196.86 164.475 196.86 163.625C196.86 162.775 196.18 162.095 195.33 162.095H193.417C192.567 162.052 191.887 162.775 191.887 163.625Z" fill="#0B4870"/>
<path d="M216.835 143.692V141.78C216.835 140.93 216.155 140.25 215.305 140.25C214.455 140.25 213.775 140.93 213.775 141.78V143.692C213.775 144.542 214.455 145.222 215.305 145.222C216.155 145.222 216.835 144.542 216.835 143.692Z" fill="#0B4870"/>
<path d="M213.69 183.6V185.512C213.69 186.362 214.37 187.042 215.22 187.042C216.07 187.042 216.75 186.362 216.75 185.512V183.6C216.75 182.75 216.07 182.07 215.22 182.07C214.37 182.07 213.69 182.75 213.69 183.6Z" fill="#0B4870"/>
<path d="M207.57 153.765C206.975 153.17 205.997 153.17 205.402 153.765C204.807 154.36 204.807 155.337 205.402 155.932L210.63 161.117C210.247 161.882 209.992 162.732 209.992 163.625C209.992 166.557 212.33 168.895 215.262 168.895C218.195 168.895 220.532 166.557 220.532 163.625C220.532 162.732 220.32 161.882 219.895 161.117L230.35 150.662C230.945 150.067 230.945 149.09 230.35 148.495C229.755 147.9 228.777 147.9 228.182 148.495L217.727 158.992C216.962 158.61 216.112 158.355 215.22 158.355C214.327 158.355 213.477 158.567 212.712 158.992L207.57 153.765ZM217.472 163.625C217.472 164.857 216.452 165.835 215.262 165.835C214.072 165.835 213.052 164.815 213.052 163.625C213.052 162.392 214.072 161.415 215.262 161.415C216.452 161.415 217.472 162.435 217.472 163.625Z" fill="#0B4870"/>
<path d="M190.272 150.832C190.527 150.96 190.782 151.045 191.037 151.045C191.547 151.045 192.057 150.79 192.355 150.28C193.162 148.877 194.14 147.517 195.202 146.285C195.755 145.647 195.67 144.712 195.032 144.16C194.395 143.607 193.46 143.692 192.907 144.33C191.717 145.69 190.655 147.22 189.72 148.75C189.295 149.472 189.55 150.407 190.272 150.832Z" fill="#0097FF"/>
<path d="M250.113 179.605C252.408 174.59 253.598 169.235 253.598 163.71C253.598 142.587 236.428 125.417 215.305 125.417C194.183 125.417 177.013 142.587 177.013 163.71C177.013 184.832 194.183 202.002 215.305 202.002C220.108 202.002 224.783 201.11 229.203 199.367C231.838 203.107 236.173 205.53 241.06 205.53C249.093 205.53 255.638 198.985 255.638 190.952C255.638 186.362 253.47 182.282 250.113 179.605ZM215.305 198.942C195.84 198.942 180.03 183.132 180.03 163.71C180.03 144.245 195.84 128.435 215.305 128.435C234.77 128.435 250.58 144.245 250.58 163.71C250.58 168.682 249.56 173.485 247.563 177.99C245.863 177.14 243.993 176.63 241.995 176.502C243.398 173.57 244.333 170.425 244.715 167.152C246.628 150.917 234.983 136.212 218.748 134.3C212.16 133.535 205.658 134.937 199.963 138.38C199.24 138.805 199.028 139.74 199.453 140.462C199.878 141.185 200.813 141.397 201.535 140.972C206.635 137.912 212.458 136.637 218.365 137.317C225.42 138.125 231.71 141.652 236.13 147.22C240.55 152.787 242.505 159.757 241.698 166.812C241.315 170.17 240.295 173.4 238.68 176.375C238.638 176.46 238.638 176.545 238.595 176.672C232.815 177.65 228.225 182.07 226.908 187.722C226.78 187.765 226.695 187.765 226.568 187.807C222.105 189.89 217.133 190.697 212.203 190.145C205.148 189.337 198.858 185.81 194.438 180.242C190.018 174.675 188.063 167.705 188.87 160.65C188.955 159.8 188.36 159.077 187.553 158.95C186.703 158.865 185.98 159.46 185.853 160.267C184.918 168.13 187.128 175.865 192.015 182.07C196.903 188.275 203.958 192.185 211.82 193.12C212.968 193.247 214.115 193.332 215.263 193.332C219.13 193.332 222.913 192.567 226.44 191.122C226.44 193.077 226.865 194.99 227.588 196.69C223.72 198.177 219.598 198.942 215.305 198.942ZM241.06 202.47C234.685 202.47 229.543 197.285 229.543 190.952C229.543 184.62 234.728 179.435 241.06 179.435C247.435 179.435 252.578 184.62 252.578 190.952C252.578 197.285 247.435 202.47 241.06 202.47Z" fill="#0097FF"/>
<path d="M241.06 181.857C240.21 181.857 239.53 182.537 239.53 183.387V192.482C239.53 193.332 240.21 194.012 241.06 194.012C241.91 194.012 242.59 193.332 242.59 192.482V183.387C242.59 182.537 241.91 181.857 241.06 181.857Z" fill="#0B4870"/>
<path d="M242.59 197.03C242.59 197.88 241.91 198.56 241.06 198.56C240.21 198.56 239.53 197.88 239.53 197.03C239.53 196.18 240.21 195.5 241.06 195.5C241.91 195.5 242.59 196.18 242.59 197.03Z" fill="#0B4870"/>
<path d="M96.9849 290.232L111.01 297.755H90.3549V290.105L96.6874 288.107L96.9849 290.232Z" fill="#063149"/>
<path d="M94.9024 195.67C94.9024 195.67 101.235 241.315 100.98 244.162C100.767 247.052 96.985 290.232 96.985 290.232H90.355C90.355 290.232 85.0849 258.102 88.7824 246.67C85.9349 231.582 80.0699 199.112 80.0699 199.112L94.9024 195.67Z" fill="#093E5B"/>
<path d="M61.455 290.232L74.715 297.882H54.0175V290.232L60.775 288.49L61.455 290.232Z" fill="#063149"/>
<path d="M91.375 198.475L84.3625 206.295C84.3625 206.295 80.155 243.27 78.54 246.67C76.925 250.027 61.4125 290.232 61.4125 290.232H54.0175C54.0175 290.232 60.265 249.73 65.365 244.927C64.685 232.942 66.045 191.972 66.045 191.972L91.375 198.475Z" fill="#0B4870"/>
<path d="M115.217 177.097L117.3 177.48C117.3 177.48 117.98 175.95 120.02 176.162C122.102 176.332 123.42 177.48 123.42 177.48C123.42 177.48 120.785 182.622 120.02 183.387C119.255 184.152 117.002 181.517 117.002 181.517L114.07 180.71L115.217 177.097Z" fill="#FFE3CA"/>
<path d="M90.8225 141.142C90.8225 141.142 100.555 175.057 116.28 176.29C115.175 180.285 114.665 181.517 114.665 181.517C114.665 181.517 103.53 182.495 90.8225 166.43C89.845 148.75 90.8225 141.142 90.8225 141.142Z" fill="#46ADF9"/>
<path d="M98.7699 175.865C98.7699 175.865 101.405 172.805 103.02 172.422C104.635 171.997 109.182 170.51 109.182 170.51C109.182 170.51 108.885 171.232 108.29 171.742C107.695 172.252 105.357 173.655 105.357 173.655C105.357 173.655 105.57 177.82 105.272 178.33C104.975 178.84 97.5799 180.752 97.5799 180.752L98.7699 175.865Z" fill="#FFE3CA"/>
<path d="M110.372 159.375H128.052L130.05 160.182L117.13 191.845L98.3449 192.61L97.8774 191.845L110.372 159.375Z" fill="#E8A442"/>
<path d="M110.84 160.182H130.05L117.597 192.61H98.3449L110.84 160.182Z" fill="#FFBE55"/>
<path d="M116.752 177.969C117.546 176.036 117.52 174.195 116.695 173.856C115.87 173.517 114.558 174.809 113.765 176.742C112.971 178.674 112.996 180.515 113.821 180.854C114.647 181.193 115.959 179.901 116.752 177.969Z" fill="#F7F7F7"/>
<path d="M71.74 138.975C71.74 138.975 61.4975 142.12 60.265 142.97C58.99 143.82 67.15 180.582 67.15 180.582L62.9425 195.372C65.0675 197.327 80.7075 205.955 97.0275 196.775C95.625 187.34 90.8225 141.142 90.8225 141.142L71.74 138.975Z" fill="#2A94F4"/>
<path d="M90.865 114.495C91.8 117.045 91.9275 122.017 89.505 122.017C86.8275 119.977 90.865 114.495 90.865 114.495Z" fill="#0E538C"/>
<path d="M77.2225 107.185C70.4225 109.012 68.34 114.452 68.9775 120.19C69.615 125.97 70.465 131.962 72.7175 132.812C74.97 133.662 80.92 125.077 80.92 125.077L77.2225 107.185Z" fill="#0E538C"/>
<path d="M80.9199 133.662V141.695C80.0274 144.925 75.6924 145.52 73.9499 142.63L71.7399 138.932L72.7174 127.585L80.9199 133.662Z" fill="#FCD2B1"/>
<path d="M90.0574 116.322C90.0574 116.322 90.6099 131.112 86.6574 133.96C82.6624 136.807 76.4149 133.96 72.4199 128.265C70.1249 120.317 74.1199 114.027 76.4149 112.88C78.6674 111.775 90.0574 116.322 90.0574 116.322Z" fill="#FFE3CA"/>
<path d="M90.0999 116.79C95.2849 115.897 95.1999 109.522 93.4999 106.675C91.2049 108.375 88.3574 109.522 88.3574 109.522C88.3574 109.522 90.6524 108.375 90.0574 106.675C87.7624 107.227 78.1149 105.527 74.6724 108.375C71.2724 111.222 72.9724 116.917 74.6724 117.47C76.3724 118.022 90.0999 116.79 90.0999 116.79Z" fill="#0E538C"/>
<path d="M76.6275 115.812L71.74 123.717C71.74 123.717 70.5075 114.197 70.7625 114.112C71.0175 114.027 76.6275 115.812 76.6275 115.812Z" fill="#0E538C"/>
<path d="M72.335 123.25C71.485 121.975 69.9975 122.485 69.8275 122.91C69.4025 123.972 70.2525 127.797 72.675 128.562C74.035 127.117 72.335 123.25 72.335 123.25Z" fill="#FFE3CA"/>
<path d="M60.2225 142.97C57.035 146.88 55.25 195.202 99.535 180.71C99.535 179.817 99.535 174.887 99.535 174.887C99.535 174.887 69.7 188.19 66.555 150.152C64.94 144.075 60.2225 142.97 60.2225 142.97Z" fill="#46ADF9"/>
<path d="M124.992 173.4C124.992 173.4 121.252 173.315 120.87 173.74C120.487 174.165 119.042 179.945 119.637 180.582C120.232 181.22 123.292 181.347 123.292 181.347L125.885 174.08L124.992 173.4Z" fill="#FCD2B1"/>
<path d="M37.9527 65.7475L39.6952 65.4075C42.6277 64.8125 45.4327 66.7675 45.9002 69.7L49.8102 93.5425C50.2777 96.3475 48.4077 99.025 45.6452 99.5775L45.4752 99.62C42.6702 100.172 39.9502 98.43 39.3127 95.625L33.8727 72.08C33.1927 69.2325 35.0627 66.3425 37.9527 65.7475ZM46.2402 104.55L46.7927 104.422C49.6402 103.87 52.4027 105.697 52.9977 108.587C53.5502 111.435 51.7227 114.197 48.8327 114.792L48.2802 114.92C45.4327 115.472 42.6702 113.645 42.0752 110.755C41.5227 107.907 43.3927 105.102 46.2402 104.55Z" stroke="#FFBE55" stroke-miterlimit="10"/>
<path d="M39.5677 63.2824L41.3102 62.9424C44.2427 62.3474 47.0477 64.3024 47.5152 67.2349L51.4252 91.0774C51.8927 93.8824 50.0227 96.5599 47.2602 97.1124L47.0902 97.1549C44.2852 97.7074 41.5652 95.9649 40.9277 93.1599L35.4877 69.6149C34.7652 66.7674 36.6352 63.8774 39.5677 63.2824ZM47.8552 102.085L48.4077 101.957C51.2552 101.405 54.0177 103.232 54.6127 106.122C55.1652 108.97 53.3377 111.732 50.4477 112.327L49.8952 112.455C47.0477 113.007 44.2852 111.18 43.6902 108.29C43.1377 105.4 45.0077 102.637 47.8552 102.085Z" fill="#FFBE55"/>
<path d="M324.403 259.292C320.748 242.292 309.528 227.035 294.313 218.535C302.43 233.877 312.163 248.37 323.298 261.715L324.403 259.292Z" fill="#1A87D8"/>
<path d="M328.483 265.667C314.033 245.437 306.765 220.15 308.295 195.33C317.688 218.237 324.743 242.08 329.418 266.432L328.483 265.667Z" fill="#2A94F4"/>
<path d="M324.36 266.39C323.935 253.937 323.468 241.4 325.423 229.117C327.378 216.835 331.883 204.637 340.255 195.415C341.53 220.915 335.368 246.712 322.703 268.855L324.36 266.39Z" fill="#1A87D8"/>
<path d="M324.955 267.495C316.795 243.95 318.155 217.302 328.61 194.692C335.155 218.322 329.375 243.397 323.553 267.197L324.955 267.495Z" fill="#B0E1FF"/>
<path d="M326.018 258.782C328.27 238.127 342.04 219.13 360.953 210.587C353.26 231.2 340.17 249.73 323.298 263.84L326.018 258.782Z" fill="#2A94F4"/>
<path d="M345.525 255.17L343.188 295.247C343.188 297.16 341.615 298.775 339.66 298.775H311.865C309.953 298.775 308.338 297.202 308.338 295.247L307.828 286.195L306 255.17C306 253.257 307.573 251.642 309.528 251.642H341.998C343.273 251.642 344.378 252.322 345.015 253.342C345.355 253.852 345.525 254.49 345.525 255.17Z" fill="#CCE9FF"/>
<path d="M345.525 255.17L343.188 295.247C343.188 297.16 341.615 298.775 339.66 298.775H311.865C309.953 298.775 308.338 297.202 308.338 295.247L307.828 286.195C320.79 282.497 334.178 266.432 345.015 253.342C345.355 253.852 345.525 254.49 345.525 255.17Z" fill="#CCE9FF"/>
</svg>
