<svg width="64" height="64" viewBox="0 0 64 64" fill="none" xmlns="http://www.w3.org/2000/svg">
<path d="M32 64C49.7334 64 64 49.7334 64 32C64 14.2666 49.7334 0 32 0C14.2666 0 0 14.2666 0 32C0 49.7334 14.2666 64 32 64Z" fill="#2775CA"/>
<path d="M40.8 37.0666C40.8 32.4 38 30.8 32.4 30.1335C28.4 29.6 27.6 28.5335 27.6 26.6666C27.6 24.7997 28.9334 23.6 31.6 23.6C34 23.6 35.3334 24.4 36 26.4C36.1334 26.8 36.5334 27.0666 36.9334 27.0666H39.0666C39.6 27.0666 40 26.6666 40 26.1334V26C39.4666 23.0666 37.0666 20.8 34 20.5334V17.3334C34 16.8 33.6 16.4 32.9334 16.2666H30.9334C30.4 16.2666 30 16.6666 29.8666 17.3334V20.4C25.8666 20.9334 23.3334 23.6 23.3334 26.9334C23.3334 31.3335 26 33.0666 31.6 33.7335C35.3334 34.4 36.5334 35.2 36.5334 37.3335C36.5334 39.4669 34.6666 40.9335 32.1334 40.9335C28.6666 40.9335 27.4666 39.4666 27.0666 37.4666C26.9334 36.9335 26.5334 36.6666 26.1334 36.6666H23.8666C23.3334 36.6666 22.9334 37.0666 22.9334 37.6V37.7335C23.4666 41.0666 25.6 43.4666 30 44.1335V47.3335C30 47.8666 30.4 48.2666 31.0666 48.4H33.0666C33.6 48.4 34 48 34.1334 47.3335V44.1335C38.1334 43.4666 40.8 40.6666 40.8 37.0666V37.0666Z" fill="white"/>
<path d="M25.2 51.0667C14.8 47.3335 9.46654 35.7335 13.3334 25.4666C15.3334 19.8666 19.7334 15.6 25.2 13.6C25.7334 13.3335 26 12.9335 26 12.2666V10.4C26 9.86656 25.7334 9.46656 25.2 9.33344C25.0666 9.33344 24.8 9.33344 24.6666 9.46656C12 13.4666 5.06653 26.9335 9.06654 39.6001C11.4665 47.0667 17.2 52.8001 24.6666 55.2001C25.2 55.4667 25.7334 55.2001 25.8666 54.6667C26 54.5336 26 54.4001 26 54.1336V52.2667C26 51.8667 25.6 51.3335 25.2 51.0667ZM39.3335 9.46656C38.8 9.2 38.2666 9.46656 38.1335 10C38 10.1334 38 10.2666 38 10.5334V12.4C38 12.9335 38.4 13.4666 38.8 13.7335C49.2 17.4666 54.5335 29.0666 50.6666 39.3335C48.6666 44.9335 44.2666 49.2001 38.8 51.2001C38.2666 51.4667 38 51.8667 38 52.5336V54.4001C38 54.9336 38.2666 55.3336 38.8 55.4667C38.9335 55.4667 39.2 55.4667 39.3335 55.3336C52 51.3336 58.9335 37.8666 54.9335 25.2C52.5335 17.6 46.6666 11.8666 39.3335 9.46656V9.46656Z" fill="white"/>
</svg>
