<svg width="169" height="169" viewBox="0 0 169 169" fill="none" xmlns="http://www.w3.org/2000/svg">
<circle cx="84.5" cy="84.5" r="84" fill="#F5F5F5" stroke="#CCCCCC"/>
<g clip-path="url(#clip0)">
<path fill-rule="evenodd" clip-rule="evenodd" d="M44.8881 34.5352L22.0962 82.5252C22.0095 82.7037 21.982 82.9053 22.0178 83.1006C22.0536 83.2959 22.1507 83.4746 22.2951 83.6105L83.8505 142.738C84.0253 142.906 84.2582 143 84.5004 143C84.7427 143 84.9756 142.906 85.1504 142.738L146.706 83.6142C146.85 83.4783 146.947 83.2996 146.983 83.1043C147.019 82.909 146.991 82.7074 146.905 82.5289L124.113 34.5389C124.039 34.3777 123.921 34.2412 123.772 34.1456C123.623 34.0501 123.45 33.9995 123.273 33.9999H45.7351C45.5574 33.9977 45.3829 34.0471 45.2327 34.1421C45.0824 34.237 44.9627 34.3736 44.8881 34.5352V34.5352V34.5352Z" fill="#50AF95"/>
<path fill-rule="evenodd" clip-rule="evenodd" d="M92.4085 87.4535C91.9666 87.4867 89.6833 87.6233 84.5902 87.6233C80.5393 87.6233 77.6632 87.5015 76.6541 87.4535C60.9992 86.7632 49.3142 84.0314 49.3142 80.7607C49.3142 77.49 60.9992 74.762 76.6541 74.0606V84.7328C77.6779 84.8066 80.6093 84.9801 84.6602 84.9801C89.5213 84.9801 91.9555 84.7771 92.3937 84.7365V74.068C108.016 74.7657 119.675 77.4974 119.675 80.7607C119.675 84.024 108.019 86.7558 92.3937 87.4498L92.4085 87.4535ZM92.4085 72.9642V63.4142H114.21V48.8511H54.8529V63.4142H76.6504V72.9605C58.9332 73.7763 45.6094 77.2944 45.6094 81.5101C45.6094 85.7258 58.9332 89.2402 76.6504 90.0597V120.663H92.4048V90.0486C110.081 89.2328 123.383 85.7184 123.383 81.5064C123.383 77.2944 110.093 73.78 92.4048 72.9605L92.4085 72.9642Z" fill="white"/>
</g>
<defs>
<clipPath id="clip0">
<rect width="125" height="109" fill="white" transform="translate(22 34)"/>
</clipPath>
</defs>
</svg>
